<svg width="17" height="17" viewBox="0 0 17 17" fill="none" xmlns="http://www.w3.org/2000/svg">
<path d="M13.56 3.99H11.25V3.11C11.25 3.0495 11.2005 3 11.14 3H10.37C10.3095 3 10.26 3.0495 10.26 3.11V3.99H6.74V3.11C6.74 3.0495 6.6905 3 6.63 3H5.86C5.7995 3 5.75 3.0495 5.75 3.11V3.99H3.44C3.19662 3.99 3 4.18662 3 4.43V13.56C3 13.8034 3.19662 14 3.44 14H13.56C13.8034 14 14 13.8034 14 13.56V4.43C14 4.18662 13.8034 3.99 13.56 3.99ZM13.01 13.01H3.99V7.785H13.01V13.01ZM3.99 6.85V4.98H5.75V5.64C5.75 5.7005 5.7995 5.75 5.86 5.75H6.63C6.6905 5.75 6.74 5.7005 6.74 5.64V4.98H10.26V5.64C10.26 5.7005 10.3095 5.75 10.37 5.75H11.14C11.2005 5.75 11.25 5.7005 11.25 5.64V4.98H13.01V6.85H3.99Z" fill="#004DA8"/>
</svg>
