<svg width="17" height="17" viewBox="0 0 17 17" fill="none" xmlns="http://www.w3.org/2000/svg">
<path d="M8.02838 3.44304C8.09404 3.31005 8.19559 3.19808 8.32156 3.11978C8.44753 3.04149 8.59289 3 8.74121 3C8.88953 3 9.03489 3.04149 9.16085 3.11978C9.28682 3.19808 9.38838 3.31005 9.45404 3.44304L10.7976 6.1654L13.8017 6.60175C13.9486 6.62294 14.0866 6.6848 14.2001 6.78034C14.3136 6.87588 14.3981 7.00129 14.4441 7.14237C14.4901 7.28346 14.4956 7.43459 14.4601 7.57867C14.4247 7.72275 14.3496 7.85402 14.2433 7.95764L12.0686 10.0776L12.5818 13.0694C12.6068 13.2155 12.5903 13.3658 12.5344 13.5031C12.4784 13.6404 12.3852 13.7593 12.2652 13.8464C12.1452 13.9335 12.0032 13.9853 11.8553 13.996C11.7074 14.0067 11.5595 13.9757 11.4282 13.9067L8.74121 12.4952L6.05418 13.9085C5.92279 13.9777 5.77465 14.0086 5.62656 13.9979C5.47846 13.9872 5.33633 13.9352 5.21625 13.8479C5.09618 13.7606 5.00296 13.6413 4.94717 13.5037C4.89138 13.3661 4.87524 13.2157 4.90058 13.0694L5.4129 10.0776L3.23995 7.95852C3.13376 7.85496 3.05865 7.72376 3.02313 7.57975C2.98761 7.43573 2.99309 7.28465 3.03895 7.14359C3.0848 7.00253 3.16921 6.87711 3.28262 6.78151C3.39604 6.68592 3.53394 6.62396 3.68072 6.60264L6.68398 6.16628L8.02838 3.44392V3.44304ZM8.74033 3.99422L7.45599 6.59822C7.39897 6.71368 7.31475 6.81355 7.21058 6.88925C7.10641 6.96495 6.98541 7.01422 6.85799 7.03281L3.98458 7.45062L6.0639 9.47693C6.15598 9.56691 6.22483 9.67792 6.26453 9.80039C6.30422 9.92287 6.31358 10.0532 6.29179 10.18L5.80155 13.042L8.37199 11.6905C8.486 11.6306 8.61286 11.5993 8.74165 11.5993C8.87044 11.5993 8.9973 11.6306 9.11132 11.6905L11.6817 13.042L11.1906 10.18C11.1688 10.0532 11.1782 9.92287 11.2179 9.80039C11.2576 9.67792 11.3264 9.56691 11.4185 9.47693L13.4978 7.45062L10.6244 7.03281C10.497 7.01422 10.376 6.96495 10.2718 6.88925C10.1677 6.81355 10.0835 6.71368 10.0264 6.59822L8.74033 3.99422Z" fill="#004DA8"/>
<path d="M4 7L3.5 7.5L6 10L5.5 12V13.5H6L8.5 12H9L12 13.5V12L11.5 10L13 8.5L14 7.5L13.5 7H12L10.5 6.5L10 5.5L9 3.5H8.5L7 6.5H6.5L4 7Z" fill="#004DA8"/>
</svg>
