<svg width="17" height="17" viewBox="0 0 17 17" fill="none" xmlns="http://www.w3.org/2000/svg">
<path d="M3.58333 6.16667C3.9055 6.16667 4.16667 5.9055 4.16667 5.58333C4.16667 5.26117 3.9055 5 3.58333 5C3.26117 5 3 5.26117 3 5.58333C3 5.9055 3.26117 6.16667 3.58333 6.16667Z" fill="#004DA8"/>
<path d="M3.58333 9.08341C3.9055 9.08341 4.16667 8.82225 4.16667 8.50008C4.16667 8.17792 3.9055 7.91675 3.58333 7.91675C3.26117 7.91675 3 8.17792 3 8.50008C3 8.82225 3.26117 9.08341 3.58333 9.08341Z" fill="#004DA8"/>
<path d="M3.58333 11.9999C3.9055 11.9999 4.16667 11.7388 4.16667 11.4166C4.16667 11.0944 3.9055 10.8333 3.58333 10.8333C3.26117 10.8333 3 11.0944 3 11.4166C3 11.7388 3.26117 11.9999 3.58333 11.9999Z" fill="#004DA8"/>
<path d="M12.9516 7.91675H5.88159C5.57875 7.91675 5.33325 8.16224 5.33325 8.46508V8.53508C5.33325 8.83792 5.57875 9.08341 5.88159 9.08341H12.9516C13.2544 9.08341 13.4999 8.83792 13.4999 8.53508V8.46508C13.4999 8.16224 13.2544 7.91675 12.9516 7.91675Z" fill="#004DA8"/>
<path d="M12.9516 10.8333H5.88159C5.57875 10.8333 5.33325 11.0787 5.33325 11.3816V11.4516C5.33325 11.7544 5.57875 11.9999 5.88159 11.9999H12.9516C13.2544 11.9999 13.4999 11.7544 13.4999 11.4516V11.3816C13.4999 11.0787 13.2544 10.8333 12.9516 10.8333Z" fill="#004DA8"/>
<path d="M12.9516 5H5.88159C5.57875 5 5.33325 5.2455 5.33325 5.54833V5.61833C5.33325 5.92117 5.57875 6.16667 5.88159 6.16667H12.9516C13.2544 6.16667 13.4999 5.92117 13.4999 5.61833V5.54833C13.4999 5.2455 13.2544 5 12.9516 5Z" fill="#004DA8"/>
</svg>
