<svg width="15" height="15" viewBox="0 0 15 15" fill="none" xmlns="http://www.w3.org/2000/svg">
<path d="M5.88712 11.8643C2.62656 11.8643 0 9.28559 0 6.08448C0 2.88336 2.62656 0.304688 5.88712 0.304688C9.14767 0.304688 11.7742 2.88336 11.7742 6.08448C11.7742 9.28559 9.14767 11.8643 5.88712 11.8643ZM5.88712 1.19389C3.1247 1.19389 0.90571 3.37242 0.90571 6.08448C0.90571 8.79653 3.1247 10.9751 5.88712 10.9751C8.64953 10.9751 10.8685 8.79653 10.8685 6.08448C10.8685 3.37242 8.64953 1.19389 5.88712 1.19389Z" fill="#8A8A8A"/>
<path d="M10.2717 9.76001L14.3383 13.7525L13.698 14.3812L9.63135 10.3887L10.2717 9.76001Z" fill="#8A8A8A"/>
</svg>
