<svg width="12" height="12" viewBox="0 0 12 12" fill="none" xmlns="http://www.w3.org/2000/svg">
<path d="M7.05 6L11.775 1.275C12.075 0.975 12.075 0.525 11.775 0.225C11.475 -0.075 11.025 -0.075 10.725 0.225L6 4.95L1.275 0.225C0.975 -0.075 0.525 -0.075 0.225 0.225C-0.0749999 0.525 -0.0749999 0.975 0.225 1.275L4.95 6L0.225 10.725C0.0750001 10.875 0 11.025 0 11.25C0 11.7 0.3 12 0.75 12C0.975 12 1.125 11.925 1.275 11.775L6 7.05L10.725 11.775C10.875 11.925 11.025 12 11.25 12C11.475 12 11.625 11.925 11.775 11.775C12.075 11.475 12.075 11.025 11.775 10.725L7.05 6Z" fill="white"/>
</svg>
