<svg width="17" height="17" viewBox="0 0 17 17" fill="none" xmlns="http://www.w3.org/2000/svg">
<path fill-rule="evenodd" clip-rule="evenodd" d="M8.5 0.712646C8.67405 0.712646 8.84097 0.780527 8.96404 0.901354C9.08711 1.02218 9.15625 1.18606 9.15625 1.35693V7.7998H15.7188C15.8928 7.7998 16.0597 7.86768 16.1828 7.98851C16.3059 8.10934 16.375 8.27322 16.375 8.44409C16.375 8.61497 16.3059 8.77884 16.1828 8.89967C16.0597 9.0205 15.8928 9.08838 15.7188 9.08838H9.15625V15.5312C9.15625 15.7021 9.08711 15.866 8.96404 15.9868C8.84097 16.1077 8.67405 16.1755 8.5 16.1755C8.32595 16.1755 8.15903 16.1077 8.03596 15.9868C7.91289 15.866 7.84375 15.7021 7.84375 15.5312V9.08838H1.28125C1.1072 9.08838 0.940282 9.0205 0.817211 8.89967C0.694141 8.77884 0.625 8.61497 0.625 8.44409C0.625 8.27322 0.694141 8.10934 0.817211 7.98851C0.940282 7.86768 1.1072 7.7998 1.28125 7.7998H7.84375V1.35693C7.84375 1.18606 7.91289 1.02218 8.03596 0.901354C8.15903 0.780527 8.32595 0.712646 8.5 0.712646V0.712646Z" fill="#8A8A8A"/>
</svg>
