<svg width="15" height="12" viewBox="0 0 15 12" fill="none" xmlns="http://www.w3.org/2000/svg">
<path d="M0.73224 3.66397L2.99853 1.43899V11.3605C2.99853 11.4721 3.04368 11.5791 3.12406 11.658C3.20443 11.7369 3.31344 11.7812 3.4271 11.7812C3.54077 11.7812 3.64978 11.7369 3.73015 11.658C3.81052 11.5791 3.85567 11.4721 3.85567 11.3605V1.43479L6.12625 3.66481C6.20673 3.7437 6.31583 3.78798 6.42955 3.7879C6.54328 3.78782 6.65232 3.74339 6.73268 3.66439C6.81304 3.58538 6.85814 3.47827 6.85806 3.36661C6.85798 3.25496 6.81273 3.14791 6.73225 3.06901L3.74082 0.132118L3.73225 0.123703C3.69244 0.0845032 3.64515 0.0533987 3.59309 0.0321716C3.54102 0.0109444 3.4852 1.17374e-05 3.42882 1.11313e-08H3.4271C3.36449 -1.41423e-05 3.30263 0.0134689 3.24591 0.0394969C3.18918 0.0655249 3.13897 0.103463 3.09882 0.150632L0.125382 3.06901C0.0855909 3.10813 0.0540383 3.15457 0.0325253 3.20566C0.0110123 3.25675 -3.96889e-05 3.3115 1.07091e-07 3.36679C3.99031e-05 3.42207 0.0111707 3.47681 0.0327573 3.52787C0.0543438 3.57893 0.0859632 3.62532 0.12581 3.66439C0.165657 3.70345 0.212951 3.73443 0.264992 3.75555C0.317033 3.77667 0.372802 3.78752 0.429114 3.78748C0.485426 3.78744 0.541179 3.77652 0.593189 3.75532C0.6452 3.73413 0.692449 3.70309 0.73224 3.66397V3.66397ZM13.8406 8.11728L11.5743 10.3422V0.420759C11.5743 0.309167 11.5291 0.202145 11.4487 0.123237C11.3684 0.0443299 11.2594 1.11313e-08 11.1457 1.11313e-08C11.032 1.11313e-08 10.923 0.0443299 10.8426 0.123237C10.7623 0.202145 10.7171 0.309167 10.7171 0.420759V10.3465L8.44568 8.11644C8.40584 8.07737 8.35854 8.04639 8.3065 8.02527C8.25446 8.00415 8.19869 7.9933 8.14238 7.99334C8.02865 7.99342 7.91962 8.03785 7.83925 8.11686C7.75889 8.19586 7.71379 8.30297 7.71387 8.41463C7.71395 8.52628 7.75921 8.63333 7.83968 8.71223L10.8311 11.6491L10.8397 11.6575C10.8797 11.6968 10.9271 11.7279 10.9793 11.7491C11.0315 11.7703 11.0875 11.7812 11.144 11.7812H11.1457C11.2083 11.7812 11.2701 11.7677 11.3268 11.7417C11.3836 11.7156 11.4338 11.6777 11.474 11.6306L14.4466 8.71223C14.4875 8.67341 14.5201 8.62699 14.5426 8.57565C14.5651 8.52432 14.5769 8.46911 14.5774 8.41324C14.5779 8.35737 14.567 8.30196 14.5455 8.25026C14.5239 8.19855 14.4921 8.15157 14.4519 8.11206C14.4116 8.07256 14.3638 8.04131 14.3111 8.02016C14.2584 7.999 14.202 7.98835 14.1451 7.98884C14.0882 7.98932 14.032 8.00093 13.9797 8.02298C13.9274 8.04503 13.8801 8.07709 13.8406 8.11728Z" fill="black"/>
</svg>
