<svg width="17" height="17" viewBox="0 0 17 17" fill="none" xmlns="http://www.w3.org/2000/svg">
<path d="M8.49985 12.5908C9.58482 12.5908 10.6254 12.1598 11.3926 11.3926C12.1597 10.6254 12.5908 9.58486 12.5908 8.49988C12.5908 7.41489 12.1597 6.37435 11.3926 5.60714C10.6254 4.83994 9.58482 4.40894 8.49985 4.40894C7.41487 4.40894 6.37433 4.83994 5.60714 5.60714C4.83994 6.37435 4.40894 7.41489 4.40894 8.49988C4.40894 9.58486 4.83994 10.6254 5.60714 11.3926C6.37433 12.1598 7.41487 12.5908 8.49985 12.5908V12.5908Z" stroke="#004DA8" stroke-width="1.1" stroke-linecap="round" stroke-linejoin="round"/>
<path d="M15.3181 8.5H15.9999" stroke="#004DA8" stroke-width="1.1" stroke-linecap="round" stroke-linejoin="round"/>
<path d="M8.5 1.68182V1" stroke="#004DA8" stroke-width="1.1" stroke-linecap="round" stroke-linejoin="round"/>
<path d="M8.5 15.9999V15.3181" stroke="#004DA8" stroke-width="1.1" stroke-linecap="round" stroke-linejoin="round"/>
<path d="M13.9545 13.9548L13.2727 13.2729" stroke="#004DA8" stroke-width="1.1" stroke-linecap="round" stroke-linejoin="round"/>
<path d="M13.9545 3.04565L13.2727 3.72748" stroke="#004DA8" stroke-width="1.1" stroke-linecap="round" stroke-linejoin="round"/>
<path d="M3.04565 13.9548L3.72747 13.2729" stroke="#004DA8" stroke-width="1.1" stroke-linecap="round" stroke-linejoin="round"/>
<path d="M3.04565 3.04565L3.72747 3.72748" stroke="#004DA8" stroke-width="1.1" stroke-linecap="round" stroke-linejoin="round"/>
<path d="M1 8.5H1.68182" stroke="#004DA8" stroke-width="1.1" stroke-linecap="round" stroke-linejoin="round"/>
</svg>
